<svg width="170" height="172" viewBox="0 0 170 172" fill="none" xmlns="http://www.w3.org/2000/svg">
<path d="M95.1714 52.0693L100.406 46.6977L98.6609 44.9072L99.5332 44.012L104.767 49.3835L103.895 50.2788L102.15 48.4882L96.9162 53.8598L95.1714 52.0693ZM100.406 57.4408L101.278 56.5456L103.023 58.3361L107.385 53.8598L105.64 52.0693L106.512 51.174L111.746 56.5456L110.874 57.4408L109.129 55.6503L104.767 60.1266L106.512 61.9171L105.64 62.8124L100.406 57.4408ZM106.512 63.7076L112.619 57.4408L117.853 62.8124L116.98 63.7076L117.853 64.6029L115.236 67.2887L114.363 66.3934L113.491 67.2887L110.002 63.7076L108.257 65.4981L106.512 63.7076ZM110.874 62.8124L113.491 65.4981L116.108 62.8124L113.491 60.1266L110.874 62.8124ZM114.363 71.7649L115.236 70.8697L114.363 69.9744L115.236 69.0792L116.98 70.8697L116.108 71.7649L118.725 74.4507L120.47 72.6602L116.98 69.0792L117.853 68.1839L116.98 67.2887L118.725 65.4981L119.598 66.3934L120.47 65.4981L124.832 69.9744L123.959 70.8697L124.832 71.7649L123.959 72.6602L122.215 70.8697L123.087 69.9744L120.47 67.2886L118.725 69.0792L122.215 72.6602L121.342 73.5555L122.215 74.4507L120.47 76.2412L119.598 75.346L118.725 76.2412L114.363 71.7649ZM123.959 76.2412L124.832 75.346L130.066 80.7175L129.194 81.6128L123.959 76.2412ZM129.194 86.9843L130.066 86.0891L129.194 85.1938L130.066 84.2985L129.194 83.4033L131.811 80.7175L132.683 81.6128L133.555 80.7175L134.428 81.6128L135.3 80.7175L139.662 85.1938L138.79 86.0891L135.3 82.508L134.428 83.4033L133.555 82.508L130.938 85.1938L131.811 86.0891L130.938 86.9843L132.683 88.7748L134.428 86.9843L133.555 86.0891L134.428 85.1938L137.045 87.8796L133.555 91.4606L129.194 86.9843Z" fill="white"/>
<path d="M70.8286 127.073L65.5944 132.445L67.3391 134.235L66.4668 135.131L61.2326 129.759L62.1049 128.864L63.8497 130.654L69.0838 125.283L70.8286 127.073ZM65.5944 121.702L64.722 122.597L62.9773 120.807L58.6155 125.283L60.3602 127.073L59.4879 127.969L54.2537 122.597L55.1261 121.702L56.8708 123.492L61.2326 119.016L59.4879 117.225L60.3602 116.33L65.5944 121.702ZM59.4879 115.435L53.3813 121.702L48.1472 116.33L49.0195 115.435L48.1472 114.54L50.7642 111.854L51.6366 112.749L52.509 111.854L55.9984 115.435L57.7431 113.644L59.4879 115.435ZM55.1261 116.33L52.509 113.644L49.8919 116.33L52.509 119.016L55.1261 116.33ZM51.6366 107.378L50.7642 108.273L51.6366 109.168L50.7642 110.063L49.0195 108.273L49.8919 107.378L47.2748 104.692L45.5301 106.482L49.0195 110.063L48.1472 110.959L49.0195 111.854L47.2748 113.644L46.4024 112.749L45.5301 113.644L41.1683 109.168L42.0406 108.273L41.1683 107.378L42.0406 106.482L43.7854 108.273L42.913 109.168L45.5301 111.854L47.2748 110.063L43.7854 106.482L44.6577 105.587L43.7854 104.692L45.5301 102.901L46.4024 103.797L47.2748 102.901L51.6366 107.378ZM42.0406 102.901L41.1683 103.797L35.9341 98.4251L36.8065 97.5298L42.0406 102.901ZM36.8065 92.1583L35.9341 93.0535L36.8065 93.9488L35.9341 94.844L36.8065 95.7393L34.1894 98.4251L33.317 97.5298L32.4447 98.4251L31.5723 97.5298L30.6999 98.4251L26.3381 93.9488L27.2105 93.0535L30.6999 96.6346L31.5723 95.7393L32.4447 96.6346L35.0617 93.9488L34.1894 93.0535L35.0617 92.1583L33.317 90.3677L31.5723 92.1583L32.4447 93.0535L31.5723 93.9488L28.9552 91.263L32.4447 87.682L36.8065 92.1583Z" fill="white"/>
<path d="M46.0282 77.0805L40.794 71.709L39.0493 73.4995L38.1769 72.6043L43.4111 67.2327L44.2835 68.128L42.5387 69.9185L47.7729 75.29L46.0282 77.0805ZM51.2623 71.709L50.39 70.8137L52.1347 69.0232L47.7729 64.5469L46.0282 66.3375L45.1558 65.4422L50.39 60.0706L51.2623 60.9659L49.5176 62.7564L53.8794 67.2327L55.6241 65.4422L56.4965 66.3375L51.2623 71.709ZM57.3689 65.4422L51.2623 59.1754L56.4965 53.8038L57.3689 54.6991L58.2412 53.8038L60.8583 56.4896L59.986 57.3849L60.8583 58.2801L57.3689 61.8612L59.1136 63.6517L57.3689 65.4422ZM56.4965 60.9659L59.1136 58.2801L56.4965 55.5944L53.8794 58.2801L56.4965 60.9659ZM65.2201 57.3849L64.3478 56.4896L63.4754 57.3849L62.603 56.4896L64.3478 54.6991L65.2201 55.5944L67.8372 52.9086L66.0925 51.1181L62.603 54.6991L61.7307 53.8038L60.8583 54.6991L59.1136 52.9086L59.986 52.0133L59.1136 51.1181L63.4754 46.6418L64.3478 47.537L65.2201 46.6418L66.0925 47.537L64.3478 49.3276L63.4754 48.4323L60.8583 51.1181L62.603 52.9086L66.0925 49.3276L66.9648 50.2228L67.8372 49.3276L69.5819 51.1181L68.7096 52.0133L69.5819 52.9086L65.2201 57.3849ZM69.5819 47.537L68.7096 46.6418L73.9437 41.2702L74.8161 42.1655L69.5819 47.537ZM80.0503 42.1655L79.1779 41.2702L78.3055 42.1655L77.4332 41.2702L76.5608 42.1655L73.9437 39.4797L74.8161 38.5845L73.9437 37.6892L74.8161 36.794L73.9437 35.8987L78.3055 31.4224L79.1779 32.3177L75.6885 35.8987L76.5608 36.794L75.6885 37.6892L78.3055 40.375L79.1779 39.4797L80.0503 40.375L81.795 38.5845L80.0503 36.794L79.1779 37.6892L78.3055 36.794L80.9226 34.1082L84.4121 37.6892L80.0503 42.1655Z" fill="white"/>
<path d="M119.114 102.063L124.348 107.434L126.093 105.644L126.965 106.539L121.731 111.91L120.859 111.015L122.603 109.225L117.369 103.853L119.114 102.063ZM113.88 107.434L114.752 108.329L113.007 110.12L117.369 114.596L119.114 112.806L119.986 113.701L114.752 119.072L113.88 118.177L115.624 116.387L111.263 111.91L109.518 113.701L108.645 112.806L113.88 107.434ZM107.773 113.701L113.88 119.968L108.645 125.339L107.773 124.444L106.901 125.339L104.284 122.653L105.156 121.758L104.284 120.863L107.773 117.282L106.028 115.491L107.773 113.701ZM108.645 118.177L106.028 120.863L108.645 123.549L111.263 120.863L108.645 118.177ZM99.9218 121.758L100.794 122.653L101.667 121.758L102.539 122.653L100.794 124.444L99.9218 123.549L97.3048 126.234L99.0495 128.025L102.539 124.444L103.411 125.339L104.284 124.444L106.028 126.234L105.156 127.13L106.028 128.025L101.667 132.501L100.794 131.606L99.9218 132.501L99.0495 131.606L100.794 129.816L101.667 130.711L104.284 128.025L102.539 126.234L99.0495 129.816L98.1771 128.92L97.3048 129.816L95.56 128.025L96.4324 127.13L95.56 126.234L99.9218 121.758ZM95.56 131.606L96.4324 132.501L91.1982 137.873L90.3259 136.978L95.56 131.606ZM85.0917 136.978L85.9641 137.873L86.8364 136.978L87.7088 137.873L88.5812 136.978L91.1982 139.663L90.3259 140.559L91.1982 141.454L90.3259 142.349L91.1982 143.244L86.8364 147.721L85.9641 146.825L89.4535 143.244L88.5812 142.349L89.4535 141.454L86.8364 138.768L85.9641 139.663L85.0917 138.768L83.347 140.559L85.0917 142.349L85.9641 141.454L86.8364 142.349L84.2193 145.035L80.7299 141.454L85.0917 136.978Z" fill="white"/>
<path d="M48.7118 150.471L44.0614 158.148L47.029 160.041L45.9928 161.752L38.0208 156.666L39.057 154.956L42.0381 156.858L46.6885 149.18L48.7118 150.471Z" fill="black"/>
<path d="M41.1715 145.128L34.3438 153.722L32.5154 152.192L39.3432 143.598L41.1715 145.128Z" fill="black"/>
<path d="M36.3046 140.963L28.4009 148.579L24.5451 144.365C24.0123 143.782 23.677 143.195 23.5392 142.602C23.3866 142.008 23.4123 141.428 23.6163 140.862C23.8055 140.294 24.1612 139.759 24.6835 139.256C25.2059 138.752 25.7601 138.418 26.3462 138.253C26.9175 138.088 27.4942 138.102 28.0765 138.296C28.6588 138.49 29.2164 138.879 29.7492 139.461L31.9417 141.857L34.6953 139.204L36.3046 140.963ZM30.5361 143.212L28.5596 141.051C28.2212 140.682 27.8583 140.498 27.4709 140.501C27.0763 140.497 26.6946 140.672 26.3259 141.027C26.0725 141.271 25.9009 141.518 25.8111 141.768C25.7213 142.017 25.7095 142.273 25.7758 142.535C25.8348 142.789 25.9831 143.045 26.2207 143.305L28.1972 145.465L30.5361 143.212Z" fill="black"/>
<path d="M25.8765 127.642C26.2198 128.182 26.4927 128.731 26.6953 129.288C26.8979 129.845 27.004 130.39 27.0139 130.923C27.0091 131.452 26.8981 131.943 26.6808 132.397C26.449 132.847 26.076 133.244 25.5618 133.588C25.5175 133.618 25.4732 133.648 25.4289 133.677C25.3757 133.713 25.3329 133.735 25.3006 133.744L24.0305 131.745C24.0628 131.736 24.1011 131.717 24.1455 131.688C24.1898 131.658 24.2297 131.631 24.2651 131.607C24.5488 131.418 24.7395 131.181 24.8373 130.897C24.9293 130.605 24.9268 130.273 24.8298 129.901C24.7328 129.53 24.5555 129.142 24.2981 128.737C24.1322 128.476 23.973 128.255 23.8205 128.075C23.6535 127.891 23.4947 127.741 23.3443 127.624C23.1793 127.503 23.0254 127.42 22.8827 127.374C22.7342 127.32 22.5925 127.306 22.4576 127.332C22.3169 127.349 22.18 127.402 22.0471 127.491C21.8077 127.651 21.6642 127.863 21.6165 128.126C21.563 128.38 21.5718 128.682 21.6428 129.032C21.7081 129.373 21.8051 129.745 21.9338 130.146C22.0626 130.547 22.1971 130.958 22.3373 131.377C22.4686 131.803 22.5765 132.231 22.661 132.662C22.7365 133.099 22.7626 133.518 22.7392 133.918C22.7159 134.319 22.605 134.701 22.4066 135.065C22.2082 135.429 21.8962 135.753 21.4707 136.038C21.0186 136.34 20.5685 136.507 20.1204 136.537C19.6666 136.559 19.2217 136.465 18.7858 136.256C18.3499 136.048 17.9374 135.746 17.5481 135.353C17.1499 134.965 16.7792 134.501 16.4359 133.96C16.1156 133.456 15.8655 132.944 15.6858 132.422C15.4973 131.907 15.4051 131.404 15.4093 130.914C15.4135 130.423 15.524 129.971 15.7407 129.556C15.9517 129.133 16.2876 128.767 16.7486 128.458L16.9081 128.351L18.1525 130.309L18.0461 130.381C17.8068 130.541 17.6487 130.749 17.5718 131.006C17.4949 131.263 17.4907 131.554 17.5591 131.881C17.6275 132.207 17.7732 132.546 17.9964 132.897C18.2366 133.275 18.4781 133.575 18.7206 133.798C18.9574 134.012 19.1925 134.143 19.4259 134.192C19.6447 134.238 19.8472 134.199 20.0333 134.074C20.2461 133.932 20.3747 133.737 20.4193 133.489C20.4493 133.238 20.4316 132.941 20.3664 132.6C20.2865 132.256 20.1778 131.886 20.0402 131.49C19.9025 131.095 19.7681 130.684 19.6367 130.259C19.5054 129.834 19.3975 129.406 19.313 128.974C19.2286 128.543 19.2025 128.125 19.2348 127.718C19.2581 127.317 19.3646 126.938 19.5541 126.58C19.7437 126.222 20.0423 125.907 20.4501 125.634C21.1504 125.165 21.822 124.96 22.4649 125.017C23.1078 125.074 23.7155 125.335 24.2881 125.799C24.8608 126.262 25.3902 126.877 25.8765 127.642Z" fill="black"/>
<path d="M18.7782 122.314L17.0221 123.166L15.3279 119.49L17.084 118.638L18.7782 122.314Z" fill="black"/>
<path d="M17.4412 109.179C17.9247 110.838 17.8593 112.253 17.245 113.423C16.6175 114.586 15.3759 115.453 13.52 116.022C12.2862 116.401 11.2089 116.498 10.2881 116.312C9.35722 116.129 8.57862 115.687 7.95235 114.987C7.31589 114.29 6.83051 113.368 6.49622 112.221C6.29624 111.535 6.18468 110.866 6.16153 110.215C6.13839 109.564 6.21771 108.959 6.39951 108.401C6.57832 107.833 6.87005 107.348 7.27469 106.945C7.66615 106.534 8.18819 106.229 8.8408 106.029L9.51685 108.348C9.20074 108.445 8.94121 108.603 8.73827 108.821C8.53234 109.03 8.38362 109.282 8.2921 109.578C8.20058 109.873 8.1603 110.193 8.17125 110.535C8.1822 110.878 8.23841 111.223 8.33989 111.571C8.4951 112.104 8.70229 112.548 8.96145 112.903C9.21042 113.262 9.51646 113.531 9.87958 113.709C10.2295 113.881 10.6329 113.969 11.0898 113.974C11.5467 113.978 12.0505 113.896 12.6011 113.727L13.06 113.586C13.8247 113.352 14.419 113.047 14.8428 112.671C15.2666 112.295 15.5352 111.845 15.6486 111.319C15.7518 110.797 15.7064 110.202 15.5124 109.537C15.3512 108.984 15.1279 108.522 14.8424 108.153C14.5436 107.776 14.2019 107.518 13.8172 107.38C13.4294 107.231 13.0061 107.227 12.5472 107.368L12.4402 107.401L13.358 110.55L11.6143 111.085L10.0339 105.662L15.7085 103.921L16.1473 105.426L15.0736 105.973C15.4589 106.19 15.8006 106.447 16.0988 106.746C16.394 107.035 16.6502 107.38 16.8673 107.782C17.0947 108.181 17.2859 108.647 17.4412 109.179Z" fill="black"/>
<path d="M14.1811 94.9909L3.20616 95.1412L3.15896 91.5095L8.75406 89.8647C8.95587 89.798 9.19502 89.7307 9.47149 89.6629C9.74797 89.5951 10.0244 89.5273 10.3009 89.4595C10.5666 89.3812 10.8058 89.3193 11.0186 89.2737L11.0169 89.1457C10.8353 89.1268 10.6215 89.0924 10.3755 89.0425C10.1188 88.9926 9.8461 88.9377 9.5573 88.8776C9.26849 88.8176 8.99028 88.7521 8.72267 88.6811L3.10282 87.1898L3.05645 83.6221L14.0314 83.4719L14.062 85.8237L8.86248 85.8949C8.38252 85.9014 7.90257 85.908 7.42261 85.9146C6.93185 85.9106 6.50509 85.9058 6.14231 85.9001C5.7794 85.8837 5.54462 85.8763 5.43797 85.8777L5.43963 86.0057C5.55723 86.0255 5.77657 86.0758 6.09765 86.1567C6.40792 86.2272 6.73967 86.308 7.09288 86.3991C7.44596 86.4797 7.75097 86.5555 8.00791 86.6266L14.0936 88.2555L14.1206 90.3353L8.09565 92.146C7.8725 92.213 7.61216 92.2913 7.31463 92.3807C7.0063 92.4596 6.69263 92.5385 6.37363 92.6176C6.04382 92.6861 5.76202 92.754 5.5282 92.8212L5.52987 92.9491C5.8177 92.9345 6.1642 92.9191 6.56935 92.9029C6.96384 92.8868 7.37433 92.8706 7.80082 92.8541C8.21664 92.8377 8.60054 92.8271 8.95251 92.8223L14.152 92.7511L14.1811 94.9909Z" fill="black"/>
<path d="M15.0413 76.7849C14.9944 77.0583 14.9124 77.347 14.7953 77.651C14.68 77.9445 14.5202 78.2137 14.3159 78.4585C14.101 78.7015 13.8261 78.8849 13.491 79.0086C13.1472 79.1199 12.7339 79.1319 12.2511 79.0447C11.6738 78.9403 11.2178 78.7279 10.8832 78.4073C10.5486 78.0867 10.3161 77.6761 10.1855 77.1756C10.0462 76.6627 9.99055 76.0727 10.0184 75.4058C10.0463 74.7388 10.1279 74.011 10.2632 73.2226L9.6491 73.1116C9.40768 73.068 9.19053 73.0721 8.99766 73.124C8.80659 73.1653 8.64143 73.2764 8.50219 73.4571C8.36475 73.6274 8.26627 73.886 8.20674 74.2329C8.14722 74.5799 8.1405 74.8713 8.18659 75.1072C8.23449 75.3327 8.31854 75.505 8.43877 75.6243C8.55029 75.7312 8.68478 75.7988 8.84223 75.8273L9.03117 75.8614L8.66589 77.9903C8.6116 77.9914 8.56346 77.9881 8.52148 77.9805C8.46899 77.971 8.40601 77.9596 8.33254 77.9463C7.84969 77.8591 7.46033 77.637 7.16445 77.28C6.85807 76.9212 6.65641 76.4566 6.55947 75.8863C6.46253 75.316 6.47539 74.6734 6.59805 73.9585C6.72973 73.191 6.93949 72.5678 7.22731 72.0887C7.51695 71.599 7.8794 71.2527 8.31468 71.0495C8.75176 70.8358 9.2642 70.7821 9.85202 70.8883L13.6151 71.5684C13.804 71.6025 13.9547 71.5755 14.0672 71.4875C14.1711 71.387 14.2347 71.2685 14.2581 71.1318L14.3474 70.6114L15.7802 70.8703C15.8147 70.9849 15.8392 71.1574 15.8538 71.3876C15.8789 71.6198 15.8644 71.8935 15.8103 72.2089C15.758 72.5138 15.6638 72.7786 15.5279 73.0033C15.4042 73.2195 15.2501 73.3921 15.0656 73.5214C14.8706 73.6487 14.6522 73.7231 14.4105 73.7444L14.3915 73.8548C14.5813 74.0734 14.7376 74.3292 14.8605 74.6224C14.9851 74.9051 15.0649 75.2284 15.0998 75.5924C15.1366 75.9459 15.1171 76.3434 15.0413 76.7849ZM13.5153 75.745C13.5658 75.4507 13.5689 75.1802 13.5246 74.9338C13.4698 74.6854 13.3825 74.4691 13.2626 74.2849C13.1322 74.0987 12.964 73.9437 12.758 73.8197C12.5538 73.6853 12.3257 73.5953 12.0738 73.5498L11.6172 73.4673C11.5162 74.056 11.468 74.5892 11.4726 75.067C11.4667 75.5428 11.5348 75.9345 11.6768 76.242C11.8207 76.539 12.0605 76.7178 12.3964 76.7785C12.5854 76.8126 12.7562 76.7947 12.9089 76.7248C13.0616 76.6548 13.19 76.5371 13.2941 76.3717C13.3983 76.2062 13.472 75.9973 13.5153 75.745Z" fill="black"/>
<path d="M17.8126 64.8405C17.6303 65.3981 17.4057 65.8791 17.1388 66.2835C16.8719 66.6879 16.5812 67.0108 16.2667 67.2522C15.942 67.4901 15.6002 67.6431 15.2413 67.7113C14.8857 67.7693 14.5163 67.7323 14.133 67.6003C14.0927 67.5864 14.0524 67.5725 14.012 67.5586C13.9717 67.5448 13.9431 67.5293 13.9262 67.5122L14.5925 65.4744C14.6127 65.4813 14.6329 65.4882 14.6531 65.4952C14.6732 65.5021 14.6934 65.5091 14.7136 65.516C14.969 65.5927 15.2023 65.5828 15.4134 65.4863C15.6144 65.3863 15.79 65.2268 15.9401 65.0078C16.0936 64.7787 16.2151 64.5272 16.3046 64.2535C16.3842 64.0101 16.4402 63.77 16.4728 63.5331C16.4986 63.2825 16.4759 63.0604 16.4046 62.8666C16.3366 62.6627 16.2068 62.5278 16.0152 62.4618C15.7731 62.3785 15.5534 62.4156 15.356 62.5732C15.1619 62.7207 14.9715 62.9428 14.7847 63.2394C14.6013 63.5259 14.3978 63.8394 14.1743 64.1797C13.9809 64.4967 13.7774 64.8101 13.5638 65.1201C13.3402 65.4266 13.0962 65.6923 12.8319 65.9171C12.571 66.1318 12.2762 66.2784 11.9475 66.357C11.6088 66.4321 11.2276 66.3968 10.804 66.2509C10.3905 66.1085 10.0623 65.894 9.81942 65.6073C9.56644 65.3171 9.39048 64.9802 9.29154 64.5964C9.19591 64.2025 9.17232 63.777 9.22079 63.32C9.26248 62.8493 9.36454 62.3655 9.52698 61.8688C9.67947 61.4024 9.87244 60.9838 10.1059 60.613C10.3293 60.2387 10.5865 59.9325 10.8776 59.6943C11.1585 59.4527 11.4684 59.2943 11.8072 59.2192C12.1358 59.1406 12.4716 59.1604 12.8145 59.2785C12.8851 59.3028 12.9507 59.3253 13.0112 59.3462C13.0717 59.367 13.1104 59.386 13.1272 59.4031L12.4659 61.4257L12.3449 61.384C12.1633 61.3215 11.9938 61.3252 11.8363 61.395C11.6687 61.4614 11.5148 61.5889 11.3746 61.7775C11.2377 61.9559 11.1212 62.1922 11.0251 62.4862C10.9588 62.6889 10.9126 62.8817 10.8865 63.0645C10.8637 63.2371 10.8627 63.3947 10.8834 63.5372C10.9041 63.6797 10.9483 63.802 11.0159 63.9043C11.0766 63.9929 11.1676 64.058 11.2886 64.0997C11.46 64.1588 11.6244 64.1364 11.7818 64.0327C11.9324 63.9153 12.0827 63.7471 12.2329 63.5281C12.383 63.3091 12.5465 63.0665 12.7234 62.8003C12.9435 62.47 13.1687 62.1246 13.3989 61.7639C13.6222 61.3896 13.8709 61.0579 14.145 60.7688C14.4191 60.4796 14.7422 60.2807 15.1144 60.172C15.4765 60.0598 15.9097 60.0905 16.414 60.2642C16.8981 60.4309 17.275 60.6678 17.5449 60.9751C17.818 61.2722 18.0007 61.6227 18.093 62.0268C18.1854 62.4308 18.204 62.8715 18.1489 63.3488C18.0938 63.8262 17.9817 64.3234 17.8126 64.8405Z" fill="black"/>
<path d="M21.3608 55.7923C21.136 56.276 20.8677 56.6256 20.5559 56.841C20.2441 57.0565 19.9131 57.1616 19.5627 57.1564C19.2028 57.1465 18.8456 57.0548 18.4911 56.8813L14.2228 54.7925L13.7845 55.7356L12.2468 54.9831L12.7187 53.9674L10.7383 52.5352L11.4665 50.9681L13.6222 52.0231L14.2695 50.6301L15.8072 51.3826L15.1599 52.7756L19.0977 54.7026C19.3276 54.8152 19.5296 54.8487 19.7036 54.8033C19.868 54.7531 20.0064 54.6071 20.1188 54.3653L20.4492 53.6543L21.7713 54.3013C21.7557 54.4362 21.7263 54.588 21.6831 54.7568C21.6496 54.9304 21.6019 55.1089 21.5401 55.2924C21.488 55.4806 21.4282 55.6472 21.3608 55.7923Z" fill="black"/>
<path d="M25.2732 48.5416C24.782 49.3289 24.2405 49.9046 23.6489 50.2687C23.0483 50.6269 22.3915 50.7631 21.6783 50.6773C20.9651 50.5915 20.1896 50.2733 19.3516 49.7227C18.5048 49.1662 17.8986 48.5765 17.5331 47.9535C17.1587 47.3247 17.006 46.663 17.0749 45.9682C17.1406 45.2585 17.4134 44.5191 17.8933 43.7499C18.345 43.0259 18.8554 42.5 19.4245 42.1721C19.9846 41.8384 20.6112 41.7205 21.3041 41.8186C21.9882 41.9108 22.7492 42.2322 23.5871 42.7828L24.0685 43.0991L20.9603 48.081C21.3817 48.3323 21.7689 48.4974 22.1219 48.5763C22.4805 48.6461 22.8046 48.6102 23.094 48.4686C23.3802 48.3121 23.6475 48.0348 23.8959 47.6366C24.0314 47.4194 24.1261 47.2072 24.1798 47.0002C24.2393 46.784 24.255 46.5774 24.2271 46.3805C24.1992 46.1835 24.1276 45.9961 24.0123 45.8182C23.897 45.6404 23.7368 45.4841 23.5318 45.3494L24.6836 43.5032C25.1293 43.7961 25.4663 44.1324 25.6945 44.512C25.9227 44.8916 26.0579 45.2994 26.1001 45.7355C26.1333 46.1656 26.0809 46.6224 25.9427 47.1058C25.8012 47.5743 25.5781 48.0529 25.2732 48.5416ZM19.8005 47.2807L21.6807 44.2671C21.4133 44.0913 21.1589 43.9752 20.9176 43.9188C20.682 43.8533 20.465 43.8383 20.2668 43.874C20.0686 43.9096 19.8892 43.9958 19.7284 44.1326C19.5644 44.2545 19.4174 44.4196 19.2876 44.6277C19.073 44.9716 18.9503 45.2993 18.9194 45.6107C18.8852 45.9072 18.9445 46.195 19.0972 46.474C19.2467 46.7381 19.4811 47.007 19.8005 47.2807Z" fill="black"/>
<path d="M29.1769 42.4226L22.8045 36.9252L23.9704 35.5017L25.0754 36.2226L25.1463 36.136C25.0039 35.8723 24.902 35.6013 24.8405 35.3229C24.771 35.0376 24.7649 34.7506 24.8221 34.462C24.8793 34.1734 25.0161 33.8971 25.2324 33.633C25.3473 33.4927 25.4682 33.3788 25.5951 33.2911C25.714 33.1965 25.8092 33.1308 25.8807 33.0939L27.4072 34.4108L26.9712 34.943C26.7617 35.1988 26.6122 35.4571 26.5226 35.7178C26.4318 35.9634 26.405 36.2148 26.4422 36.4723C26.4794 36.7297 26.576 36.982 26.7319 37.2292C26.8946 37.4681 27.1173 37.7095 27.4 37.9534L30.5862 40.7021L29.1769 42.4226Z" fill="black"/>
<path d="M37.3743 33.1315L30.746 24.3829L34.2478 21.5886C35.14 20.8768 36.0179 20.4287 36.8815 20.2443C37.7452 20.0599 38.5885 20.1577 39.4116 20.5377C40.2366 20.9026 41.0291 21.5867 41.7892 22.5899C42.5428 23.5847 42.9935 24.5415 43.1412 25.4604C43.2973 26.3727 43.1818 27.2356 42.7948 28.0492C42.4078 28.8627 41.7683 29.6254 40.8761 30.3373L37.3743 33.1315ZM38.0493 30.0759L39.6752 28.7786C40.0504 28.4792 40.342 28.1578 40.5501 27.8145C40.7582 27.4711 40.8776 27.1166 40.9083 26.751C40.9326 26.377 40.8724 25.9885 40.7276 25.5856C40.5765 25.1742 40.3366 24.7517 40.0081 24.318L39.7183 23.9355C39.3897 23.5018 39.0531 23.1634 38.7082 22.9202C38.357 22.6684 38.0049 22.5128 37.6521 22.4533C37.2929 22.3852 36.9255 22.4124 36.5499 22.5347C36.1679 22.6485 35.7893 22.8551 35.4141 23.1545L33.7883 24.4518L38.0493 30.0759Z" fill="black"/>
<path d="M43.4057 16.6894L42.4597 15.0186L44.3699 13.8795L45.3159 15.5503L43.4057 16.6894ZM48.1594 25.085L44.0128 17.7615L45.9229 16.6224L50.0696 23.9459L48.1594 25.085Z" fill="black"/>
<path d="M54.1394 24.781L49.7789 14.3952L51.4471 13.6575L52.0625 14.6273L52.1649 14.582C52.241 14.047 52.4426 13.5905 52.7698 13.2126C53.0969 12.8348 53.5093 12.5358 54.0068 12.3158C54.6507 12.0311 55.2617 11.93 55.84 12.0125C56.428 12.0907 56.9699 12.3758 57.4657 12.8679C57.9712 13.3557 58.4221 14.0716 58.8185 15.0158C59.2026 15.9305 59.3937 16.7438 59.3919 17.4559C59.3902 18.168 59.222 18.773 58.8873 19.2707C58.5583 19.7544 58.0914 20.1299 57.4865 20.3974C57.1549 20.544 56.831 20.6406 56.5151 20.687C56.2033 20.7432 55.9022 20.7423 55.6117 20.6841C55.3213 20.626 55.0505 20.5183 54.7995 20.3611L54.7117 20.4L56.1734 23.8816L54.1394 24.781ZM56.0781 19.0262C56.4878 18.845 56.7767 18.624 56.9448 18.3631C57.1184 18.088 57.1908 17.7645 57.1619 17.3925C57.1288 17.0107 57.0111 16.5788 56.8087 16.0969L56.6663 15.7576C56.4598 15.2658 56.2348 14.8814 55.9912 14.6043C55.7435 14.3173 55.4647 14.1491 55.1548 14.0996C54.8504 14.0359 54.4934 14.0947 54.0837 14.2758C53.7032 14.4441 53.4282 14.6706 53.2586 14.9555C53.0891 15.2404 53.0159 15.5759 53.0393 15.962C53.0626 16.3482 53.1734 16.7773 53.3716 17.2494L53.4768 17.5002C53.6214 17.8444 53.7876 18.144 53.9757 18.3991C54.1596 18.6442 54.3562 18.8371 54.5656 18.9778C54.7848 19.1141 55.0195 19.191 55.2698 19.2086C55.516 19.2164 55.7854 19.1556 56.0781 19.0262Z" fill="black"/>
<path d="M63.6256 17.8445L60.4253 6.72795L62.5537 6.08265L65.7539 17.1992L63.6256 17.8445Z" fill="black"/>
<path d="M72.8953 15.7242C71.9915 15.8812 71.1991 15.8619 70.5182 15.6663C69.8356 15.4601 69.2784 15.0643 68.8467 14.4789C68.4133 13.883 68.1158 13.0957 67.9544 12.1169C67.7894 11.1171 67.8178 10.2731 68.0394 9.58507C68.2592 8.88648 68.6593 8.3298 69.2395 7.91503C69.818 7.48975 70.5591 7.19859 71.4629 7.04156C72.3877 6.88087 73.1862 6.90453 73.8583 7.11254C74.5392 7.30819 75.0955 7.69871 75.5272 8.28409C75.9572 8.85895 76.2546 9.64629 76.4195 10.6461C76.581 11.6249 76.5527 12.4688 76.3345 13.1779C76.1147 13.8765 75.7155 14.4385 75.137 14.8638C74.5673 15.2767 73.8201 15.5635 72.8953 15.7242ZM72.614 14.0192C73.0974 13.9352 73.4663 13.7791 73.7205 13.5509C73.9852 13.3209 74.1555 13.0098 74.2314 12.6177C74.3072 12.2256 74.3009 11.7612 74.2123 11.2245L74.1498 10.8456C74.0613 10.3089 73.9183 9.86817 73.7209 9.52355C73.5235 9.17893 73.263 8.94273 72.9392 8.81494C72.6242 8.6748 72.225 8.64673 71.7415 8.73072C71.2686 8.81289 70.9007 8.97426 70.6377 9.21482C70.3834 9.44304 70.2184 9.75319 70.1425 10.1453C70.0667 10.5374 70.073 11.0018 70.1616 11.5385L70.2241 11.9174C70.3126 12.4542 70.4556 12.8948 70.653 13.2395C70.8504 13.5841 71.1057 13.8212 71.419 13.9508C71.7427 14.0786 72.1411 14.1014 72.614 14.0192Z" fill="black"/>
<path d="M80.2677 14.3099L80.4735 5.8964L82.3129 5.94308L82.4606 7.0992L82.5726 7.10204C82.7607 6.82939 82.9798 6.59488 83.23 6.3985C83.4909 6.20238 83.7772 6.05494 84.0891 5.95615C84.4116 5.85763 84.7541 5.81298 85.1167 5.82218C85.6498 5.83571 86.1057 5.95398 86.4844 6.17699C86.8737 6.40028 87.1693 6.74922 87.3711 7.22382L87.483 7.22667C87.6711 6.95402 87.8955 6.71964 88.1564 6.52353C88.4173 6.32741 88.7143 6.18024 89.0475 6.08199C89.3806 5.98375 89.7338 5.93936 90.1071 5.94883C90.6402 5.96236 91.0964 6.06997 91.4756 6.27165C91.8654 6.47361 92.167 6.79603 92.3802 7.23892C92.5937 7.67114 92.6921 8.22848 92.6754 8.91095L92.5358 14.6212L90.3125 14.5648L90.4423 9.2544C90.4489 8.98781 90.4223 8.76307 90.3628 8.58017C90.3142 8.38687 90.2379 8.23555 90.1338 8.12621C90.0301 8.00621 89.8989 7.91751 89.7402 7.86014C89.5816 7.80276 89.4116 7.77177 89.2303 7.76717C88.9318 7.75959 88.6632 7.8328 88.4247 7.9868C88.1862 8.1408 87.9943 8.35467 87.8489 8.6284C87.7141 8.9024 87.6423 9.22068 87.6335 9.58324L87.5134 14.4938L85.2901 14.4373L85.42 9.12693C85.4265 8.86035 85.4 8.6356 85.3404 8.4527C85.2918 8.2594 85.2155 8.10809 85.1114 7.99874C85.0077 7.87874 84.8765 7.79005 84.7178 7.73267C84.5699 7.67557 84.3999 7.64458 84.208 7.63971C83.92 7.6324 83.6515 7.70561 83.4023 7.85934C83.1638 8.01334 82.9719 8.2272 82.8265 8.50093C82.6917 8.77494 82.6199 9.09322 82.6111 9.45578L82.491 14.3663L80.2677 14.3099Z" fill="black"/>
<path d="M98.4981 15.9652C98.2274 15.9048 97.9425 15.8084 97.6435 15.6761C97.3549 15.5461 97.0918 15.3726 96.8543 15.1556C96.619 14.9283 96.445 14.6435 96.3321 14.3014C96.2319 13.9512 96.2327 13.536 96.3345 13.056C96.4561 12.4821 96.6817 12.0352 97.0112 11.7154C97.3406 11.3955 97.7565 11.1823 98.2588 11.0759C98.7738 10.9614 99.3628 10.9344 100.026 10.995C100.689 11.0556 101.411 11.1731 102.192 11.3474L102.321 10.737C102.372 10.497 102.375 10.279 102.329 10.083C102.294 9.88934 102.188 9.71826 102.013 9.56975C101.847 9.42357 101.593 9.31213 101.249 9.23543C100.906 9.15873 100.616 9.13772 100.38 9.17239C100.154 9.20938 99.9795 9.28525 99.857 9.39998C99.7472 9.50661 99.6757 9.63818 99.6425 9.7947L99.6027 9.98253L97.4946 9.51189C97.4953 9.45739 97.5 9.40927 97.5089 9.36753C97.5199 9.31536 97.5332 9.25275 97.5487 9.1797C97.6504 8.6997 97.8835 8.32007 98.248 8.0408C98.6147 7.75109 99.0835 7.57159 99.6542 7.50229C100.225 7.433 100.864 7.47737 101.572 7.63542C102.332 7.80508 102.946 8.04599 103.414 8.35813C103.893 8.6726 104.226 9.05309 104.415 9.49961C104.614 9.94845 104.652 10.465 104.528 11.0494L103.735 14.7903C103.695 14.9781 103.718 15.1306 103.802 15.2477C103.899 15.3568 104.015 15.4264 104.15 15.4566L104.665 15.5717L104.363 16.996C104.248 17.025 104.076 17.0411 103.846 17.0445C103.614 17.0583 103.342 17.0303 103.03 16.9606C102.728 16.8932 102.467 16.7858 102.248 16.6384C102.036 16.5038 101.869 16.3408 101.746 16.1494C101.626 15.9476 101.558 15.725 101.544 15.4814L101.435 15.457C101.212 15.6367 100.952 15.7809 100.657 15.8897C100.371 16.0009 100.047 16.0651 99.6835 16.0823C99.3304 16.1019 98.9353 16.0628 98.4981 15.9652ZM99.5804 14.4856C99.8719 14.5507 100.141 14.567 100.388 14.5347C100.637 14.4919 100.855 14.4149 101.042 14.3037C101.231 14.182 101.391 14.0209 101.52 13.8204C101.661 13.6222 101.757 13.3979 101.81 13.1474L101.906 12.6935C101.323 12.5633 100.794 12.4889 100.318 12.4701C99.8448 12.4409 99.4528 12.49 99.1423 12.6174C98.8422 12.7471 98.6568 12.9789 98.586 13.3128C98.5462 13.5006 98.5588 13.6728 98.6237 13.8294C98.6886 13.986 98.8019 14.1205 98.9634 14.2331C99.1248 14.3457 99.3305 14.4298 99.5804 14.4856Z" fill="black"/>
<path d="M114.793 10.6564L115.513 8.87658L117.559 9.74838L116.839 11.5282L114.793 10.6564ZM111.174 19.6002L114.331 11.7985L116.377 12.6703L113.22 20.472L111.174 19.6002Z" fill="black"/>
<path d="M116.368 21.8662L120.418 14.4889L122.011 15.41L121.609 16.5079L121.706 16.5639C122.005 16.417 122.319 16.3214 122.648 16.2772C122.985 16.2384 123.328 16.2576 123.675 16.335C124.021 16.4124 124.37 16.5525 124.721 16.7554C125.201 17.033 125.573 17.3648 125.835 17.7507C126.098 18.1366 126.221 18.5773 126.204 19.0727C126.197 19.5736 126.024 20.1325 125.685 20.7496L122.975 25.6865L121.049 24.5733L123.59 19.9449C123.719 19.7112 123.799 19.4988 123.831 19.3078C123.868 19.1075 123.859 18.9239 123.805 18.7569C123.765 18.586 123.679 18.4318 123.548 18.2942C123.416 18.1567 123.254 18.0319 123.06 17.9198C122.774 17.7543 122.477 17.6749 122.169 17.6816C121.861 17.6884 121.576 17.776 121.313 17.9443C121.05 18.1127 120.831 18.3558 120.657 18.6737L118.293 22.9795L116.368 21.8662Z" fill="black"/>
<path d="M133.268 34.2498C132.444 33.4606 131.872 32.6397 131.551 31.7871C131.238 30.9266 131.211 30.0371 131.469 29.1184C131.736 28.2072 132.306 27.27 133.182 26.307C134.473 24.886 135.77 24.1567 137.072 24.119C138.389 24.0807 139.668 24.6553 140.909 25.8428C141.587 26.4918 142.088 27.1929 142.412 27.946C142.736 28.6991 142.837 29.4599 142.715 30.2286C142.601 31.0046 142.217 31.7518 141.564 32.4702L139.83 30.8107C140.175 30.4318 140.388 30.0383 140.471 29.6303C140.561 29.2297 140.528 28.8295 140.373 28.4298C140.232 28.0296 139.981 27.6561 139.619 27.3095C139.126 26.8375 138.628 26.5452 138.125 26.4328C137.629 26.3278 137.129 26.3949 136.623 26.6342C136.132 26.873 135.636 27.2686 135.134 27.8212L134.8 28.1883C134.284 28.7566 133.927 29.308 133.729 29.8423C133.539 30.3687 133.508 30.8781 133.637 31.3705C133.781 31.8623 134.1 32.3442 134.593 32.8163C134.978 33.185 135.374 33.4388 135.781 33.5775C136.188 33.7162 136.587 33.729 136.978 33.616C137.369 33.503 137.737 33.2571 138.081 32.8782L139.746 34.4713C139.093 35.1896 138.397 35.6381 137.658 35.8167C136.927 36.0027 136.185 35.956 135.43 35.6765C134.682 35.3892 133.962 34.9136 133.268 34.2498Z" fill="black"/>
<path d="M137.615 43.1704C137.38 42.8539 137.207 42.5689 137.098 42.3155C136.987 42.0773 136.918 41.9217 136.89 41.8486L138.074 40.9205L138.657 41.7033C138.816 41.9171 139.01 42.0701 139.238 42.1623C139.457 42.261 139.695 42.3119 139.95 42.3152C140.197 42.325 140.43 42.2908 140.651 42.2124L145.305 34.3752L146.71 36.2617L144.51 39.816C144.406 39.9792 144.267 40.1763 144.093 40.4074C143.934 40.6404 143.763 40.8832 143.579 41.136C143.403 41.3822 143.243 41.5958 143.099 41.7768L143.147 41.8409C143.29 41.783 143.457 41.7129 143.648 41.6306C143.839 41.5483 144.035 41.4627 144.235 41.3738C144.441 41.2935 144.635 41.2155 144.818 41.1398C145.016 41.0661 145.186 41.0002 145.329 40.9423L149.118 39.4955L150.456 41.2921L142.438 43.9418C141.973 44.1031 141.517 44.2233 141.071 44.3023C140.622 44.3965 140.194 44.4278 139.785 44.3963C139.367 44.3713 138.977 44.2575 138.613 44.0549C138.247 43.8673 137.915 43.5725 137.615 43.1704Z" fill="black"/>
<path d="M147.4 53.1958C147.144 52.7156 147.002 52.2208 146.973 51.7116C146.958 51.2066 147.08 50.7222 147.341 50.2584L147.288 50.1595L146.215 50.5594L145.358 48.9492L155.45 43.2945L156.494 45.2579L152.935 47.2523L152.98 47.337C153.274 47.3678 153.553 47.4497 153.818 47.5829C154.082 47.7161 154.319 47.9009 154.529 48.1375C154.749 48.3689 154.944 48.6447 155.115 48.9649C155.425 49.5487 155.561 50.1328 155.521 50.7172C155.487 51.311 155.251 51.8893 154.814 52.4522C154.386 53.0099 153.73 53.5364 152.846 54.0318C151.962 54.5271 151.171 54.8114 150.473 54.8846C149.78 54.9672 149.174 54.8608 148.654 54.5652C148.149 54.2738 147.731 53.8173 147.4 53.1958ZM148.668 51.6968C148.878 52.0923 149.118 52.3614 149.387 52.504C149.671 52.6508 149.994 52.6899 150.356 52.6214C150.718 52.5529 151.132 52.3884 151.597 52.1277L151.918 51.9478C152.383 51.6871 152.742 51.4189 152.994 51.1432C153.255 50.8624 153.398 50.5625 153.421 50.2437C153.459 49.929 153.373 49.574 153.163 49.1784C153.012 48.8959 152.833 48.6845 152.626 48.5441C152.428 48.3985 152.2 48.3119 151.944 48.2843C151.702 48.261 151.429 48.292 151.124 48.3772C150.819 48.4625 150.503 48.5964 150.178 48.7789L149.927 48.9197C149.489 49.1648 149.142 49.4324 148.886 49.7227C148.63 50.013 148.481 50.3228 148.438 50.652C148.396 50.9813 148.473 51.3296 148.668 51.6968Z" fill="black"/>
<path d="M151.6 62.966C151.294 62.0897 151.183 61.3012 151.266 60.6003C151.359 59.8957 151.658 59.2802 152.164 58.7537C152.669 58.2273 153.392 57.7912 154.334 57.4455C155.285 57.0962 156.114 56.9623 156.82 57.0438C157.536 57.1216 158.141 57.3993 158.635 57.8768C159.143 58.3607 159.546 59.0307 159.844 59.8868C160.125 60.6926 160.217 61.4258 160.12 62.0863C160.033 62.7433 159.738 63.323 159.236 63.8257C158.743 64.3247 158.026 64.747 157.085 65.0927L156.544 65.2913L154.611 59.7467C154.157 59.936 153.791 60.1499 153.513 60.3885C153.238 60.6371 153.067 60.9217 152.998 61.2424C152.942 61.5695 152.992 61.9547 153.147 62.3978C153.231 62.6396 153.336 62.8451 153.463 63.0144C153.593 63.1937 153.743 63.3319 153.913 63.4287C154.082 63.5256 154.271 63.5813 154.479 63.5956C154.687 63.61 154.907 63.5749 155.137 63.4903L155.854 65.545C155.353 65.7289 154.886 65.7982 154.452 65.7529C154.018 65.7077 153.62 65.5699 153.257 65.3396C152.905 65.1055 152.584 64.7858 152.296 64.3804C152.021 63.9813 151.789 63.5099 151.6 62.966ZM155.943 59.2915L157.113 62.6454C157.413 62.5351 157.659 62.3992 157.852 62.2377C158.047 62.0863 158.192 61.9194 158.287 61.737C158.381 61.5546 158.425 61.3567 158.419 61.1432C158.426 60.9362 158.389 60.7169 158.308 60.4852C158.174 60.1025 157.997 59.8041 157.775 59.59C157.567 59.3824 157.309 59.2558 156.999 59.2104C156.703 59.1714 156.351 59.1985 155.943 59.2915Z" fill="black"/>
<path d="M153.868 69.8947L162.082 68.0614L162.463 69.8614L161.219 70.3194L161.242 70.429C161.535 70.4729 161.809 70.554 162.063 70.6721C162.327 70.788 162.553 70.956 162.742 71.1762C162.93 71.3965 163.06 71.6735 163.131 72.0075C163.168 72.1849 163.182 72.3512 163.171 72.5066C163.171 72.6597 163.163 72.7762 163.147 72.8562L161.179 73.2954L161.037 72.6223C160.968 72.2989 160.861 72.0224 160.714 71.7928C160.58 71.5714 160.401 71.3981 160.178 71.273C159.956 71.1479 159.7 71.0738 159.412 71.0507C159.126 71.0381 158.8 71.0724 158.436 71.1538L154.329 72.0704L153.868 69.8947Z" fill="black"/>
<path d="M155.748 86.4758C155.742 85.8359 155.8 85.2272 155.922 84.65C156.045 84.0727 156.242 83.5587 156.515 83.1079C156.799 82.6676 157.153 82.3173 157.577 82.057C158.012 81.8072 158.539 81.6792 159.157 81.6729C159.211 81.6724 159.264 81.6718 159.317 81.6713C159.381 81.6706 159.43 81.6755 159.462 81.6858L159.485 84.0537C159.452 84.0434 159.41 84.0385 159.356 84.039C159.303 84.0396 159.255 84.04 159.212 84.0405C158.871 84.0439 158.584 84.1375 158.351 84.3212C158.118 84.5156 157.945 84.7947 157.831 85.1586C157.717 85.5224 157.663 85.9443 157.667 86.4243C157.67 86.7336 157.689 87.0055 157.723 87.2398C157.768 87.4847 157.824 87.6975 157.889 87.8781C157.966 88.0694 158.053 88.2232 158.15 88.3395C158.247 88.4665 158.36 88.556 158.488 88.6081C158.617 88.6708 158.761 88.7013 158.921 88.6997C159.209 88.6967 159.443 88.5984 159.623 88.4045C159.802 88.2214 159.954 87.9638 160.079 87.6318C160.204 87.3106 160.318 86.9467 160.421 86.5403C160.523 86.1339 160.626 85.7168 160.728 85.2891C160.842 84.8613 160.976 84.4439 161.132 84.0369C161.299 83.6299 161.498 83.2652 161.73 82.9428C161.961 82.6204 162.258 82.3614 162.618 82.1657C162.979 81.9701 163.416 81.8696 163.928 81.8644C164.472 81.8589 164.942 81.9661 165.339 82.1861C165.736 82.4167 166.064 82.7387 166.324 83.1521C166.584 83.5655 166.775 84.0436 166.898 84.5863C167.031 85.129 167.101 85.7203 167.107 86.3603C167.113 86.9576 167.054 87.5236 166.932 88.0582C166.819 88.5927 166.632 89.0639 166.369 89.472C166.106 89.88 165.773 90.1981 165.37 90.4262C164.967 90.665 164.488 90.7872 163.934 90.7928L163.742 90.7948L163.719 88.4749L163.847 88.4736C164.135 88.4706 164.38 88.3828 164.581 88.2101C164.782 88.0374 164.94 87.7958 165.054 87.4852C165.168 87.1747 165.223 86.8115 165.219 86.3955C165.215 85.9475 165.169 85.564 165.08 85.2449C164.992 84.9364 164.862 84.6977 164.689 84.5288C164.528 84.3704 164.335 84.2924 164.111 84.2947C163.855 84.2973 163.643 84.3901 163.474 84.5732C163.316 84.7668 163.174 85.0242 163.049 85.3455C162.935 85.6774 162.832 86.0464 162.74 86.4527C162.648 86.859 162.545 87.2761 162.432 87.7039C162.319 88.1318 162.184 88.5491 162.028 88.9561C161.872 89.363 161.673 89.7277 161.431 90.0502C161.199 90.3726 160.908 90.6316 160.558 90.8271C160.208 91.0227 159.787 91.123 159.297 91.128C158.454 91.1366 157.775 90.9408 157.259 90.5407C156.743 90.1406 156.364 89.5897 156.123 88.8881C155.882 88.1866 155.756 87.3825 155.748 86.4758Z" fill="black"/>
<path d="M154.95 98.5921C155.09 97.6746 155.359 96.9292 155.759 96.3558C156.169 95.7841 156.72 95.3914 157.41 95.1777C158.101 94.964 158.941 94.9362 159.931 95.0945C160.932 95.2544 161.724 95.543 162.308 95.9604C162.903 96.3794 163.306 96.9192 163.519 97.5797C163.741 98.2524 163.783 99.037 163.647 99.9334C163.519 100.777 163.259 101.464 162.865 101.996C162.482 102.529 161.952 102.892 161.276 103.086C160.609 103.282 159.781 103.301 158.791 103.143L158.222 103.052L159.103 97.2467C158.615 97.1903 158.193 97.1985 157.837 97.2712C157.479 97.3544 157.195 97.5197 156.985 97.7669C156.784 98.0264 156.648 98.3882 156.578 98.8522C156.539 99.1053 156.537 99.3371 156.569 99.5476C156.601 99.7686 156.668 99.963 156.772 100.131C156.876 100.299 157.017 100.44 157.193 100.555C157.37 100.669 157.58 100.746 157.822 100.785L157.495 102.936C156.969 102.852 156.525 102.684 156.164 102.432C155.803 102.18 155.517 101.864 155.305 101.484C155.103 101.106 154.97 100.669 154.905 100.173C154.849 99.6885 154.864 99.1616 154.95 98.5921ZM160.489 97.5005L159.956 101.012C160.272 101.063 160.552 101.064 160.797 101.017C161.04 100.98 161.245 100.905 161.413 100.792C161.582 100.678 161.713 100.526 161.806 100.336C161.909 100.158 161.978 99.9475 162.015 99.7049C162.076 99.3042 162.059 98.9558 161.963 98.6597C161.877 98.3759 161.708 98.1382 161.457 97.9468C161.214 97.7676 160.891 97.6189 160.489 97.5005Z" fill="black"/>
<path d="M152.567 109.279C152.832 108.423 153.201 107.752 153.675 107.267C154.159 106.785 154.757 106.492 155.47 106.388C156.191 106.297 157.022 106.405 157.966 106.713C158.929 107.026 159.67 107.43 160.187 107.924C160.711 108.431 161.035 109.025 161.16 109.704C161.282 110.395 161.212 111.163 160.95 112.008C160.78 112.559 160.561 113.032 160.294 113.427C160.023 113.832 159.701 114.153 159.326 114.39C158.951 114.627 158.536 114.761 158.08 114.792C157.631 114.837 157.132 114.77 156.585 114.591L157.242 112.467C157.607 112.585 157.923 112.627 158.191 112.591C158.459 112.555 158.69 112.439 158.884 112.244C159.075 112.06 159.224 111.794 159.332 111.448C159.458 111.04 159.469 110.679 159.365 110.365C159.261 110.051 159.051 109.775 158.733 109.537C158.416 109.299 157.994 109.094 157.467 108.922L157.117 108.809C156.599 108.64 156.144 108.559 155.752 108.566C155.356 108.583 155.025 108.694 154.761 108.899C154.507 109.108 154.313 109.427 154.181 109.855C154.074 110.201 154.046 110.506 154.099 110.77C154.148 111.044 154.276 111.282 154.481 111.484C154.687 111.685 154.962 111.842 155.307 111.954L154.683 113.972C154.166 113.804 153.731 113.567 153.379 113.261C153.024 112.966 152.759 112.611 152.586 112.196C152.41 111.791 152.32 111.341 152.317 110.846C152.314 110.352 152.397 109.829 152.567 109.279Z" fill="black"/>
<path d="M149.029 118.724C149.402 117.957 149.907 117.455 150.545 117.218C151.182 116.982 151.965 117.102 152.895 117.579L157.907 120.148L156.934 122.148L152.249 119.746C152.003 119.62 151.78 119.542 151.581 119.512C151.392 119.486 151.219 119.5 151.063 119.552C150.903 119.613 150.759 119.713 150.632 119.852C150.505 119.991 150.393 120.161 150.295 120.362C150.15 120.66 150.091 120.965 150.116 121.277C150.142 121.59 150.246 121.877 150.427 122.138C150.618 122.403 150.87 122.616 151.183 122.777L155.54 125.011L154.566 127.01L147.077 123.171L147.876 121.531L148.971 121.912L149.02 121.812C148.871 121.508 148.768 121.185 148.709 120.843C148.645 120.511 148.64 120.167 148.695 119.812C148.74 119.451 148.851 119.089 149.029 118.724Z" fill="black"/>
<path d="M145.059 126.654L151.966 131.463L150.951 132.998L149.777 132.395L149.715 132.489C149.884 132.736 150.013 132.995 150.103 133.266C150.202 133.542 150.237 133.827 150.21 134.119C150.182 134.412 150.074 134.701 149.886 134.986C149.786 135.137 149.677 135.263 149.56 135.363C149.451 135.469 149.363 135.544 149.296 135.588L147.642 134.436L148.021 133.862C148.203 133.587 148.326 133.314 148.388 133.046C148.453 132.793 148.454 132.54 148.391 132.288C148.328 132.036 148.206 131.795 148.025 131.565C147.839 131.344 147.592 131.127 147.286 130.914L143.833 128.509L145.059 126.654Z" fill="black"/>
<path d="M148.048 139.218L149.514 140.458L148.122 142.192L146.656 140.953L148.048 139.218ZM140.681 132.989L147.108 138.423L145.715 140.157L139.289 134.723L140.681 132.989Z" fill="black"/>
<path d="M135.147 139.097C135.516 138.712 135.882 138.468 136.246 138.366C136.61 138.264 136.956 138.272 137.285 138.392C137.621 138.519 137.928 138.723 138.206 139.003L141.55 142.379L142.27 141.628L143.474 142.845L142.699 143.653L144.101 145.659L142.905 146.906L141.216 145.201L140.153 146.31L138.948 145.094L140.011 143.985L136.926 140.87C136.746 140.688 136.566 140.59 136.387 140.577C136.216 140.57 136.038 140.664 135.854 140.856L135.311 141.422L134.275 140.376C134.334 140.254 134.411 140.119 134.506 139.973C134.594 139.82 134.697 139.666 134.815 139.512C134.926 139.351 135.036 139.213 135.147 139.097Z" fill="black"/>
<path d="M129.415 140.787C129.721 140.538 129.996 140.354 130.242 140.236C130.473 140.116 130.624 140.041 130.695 140.01L131.617 141.198L130.861 141.816C130.654 141.985 130.508 142.187 130.421 142.423C130.328 142.651 130.281 142.895 130.282 143.157C130.275 143.41 130.312 143.648 130.391 143.873L138.103 148.437L136.281 149.925L132.783 147.764C132.622 147.661 132.428 147.524 132.2 147.352C131.971 147.195 131.731 147.026 131.482 146.844C131.239 146.67 131.029 146.512 130.85 146.369L130.788 146.419C130.847 146.564 130.917 146.734 131 146.928C131.083 147.122 131.17 147.32 131.259 147.522C131.34 147.731 131.419 147.928 131.495 148.114C131.57 148.314 131.637 148.487 131.695 148.632L133.159 152.476L131.424 153.893L128.729 145.748C128.565 145.276 128.441 144.812 128.358 144.357C128.26 143.9 128.223 143.461 128.249 143.042C128.267 142.613 128.373 142.21 128.566 141.832C128.744 141.453 129.027 141.105 129.415 140.787Z" fill="black"/>
<path d="M54.3241 157.573C53.9018 157.381 53.4767 157.836 53.682 158.261L55.0377 161.067C55.1275 161.253 55.0978 161.476 54.9627 161.63L52.9224 163.958C52.6134 164.311 52.9045 164.867 53.3618 164.798L56.3792 164.343C56.5794 164.312 56.7775 164.411 56.8788 164.59L58.4055 167.301C58.6369 167.712 59.242 167.6 59.3192 167.133L59.8297 164.045C59.8635 163.84 60.0153 163.678 60.2129 163.635L63.1982 162.982C63.6501 162.883 63.7329 162.258 63.3233 162.038L60.6206 160.586C60.4412 160.49 60.3372 160.291 60.3583 160.084L60.6754 156.971C60.7235 156.499 60.1696 156.224 59.8393 156.556L57.6584 158.745C57.5139 158.89 57.2978 158.93 57.113 158.846L54.3241 157.573Z" fill="black"/>
<path d="M118.064 150.378C117.642 150.185 117.217 150.64 117.422 151.065L118.778 153.872C118.867 154.058 118.838 154.281 118.703 154.435L116.662 156.763C116.353 157.116 116.644 157.672 117.102 157.603L120.119 157.147C120.319 157.117 120.517 157.215 120.619 157.395L122.145 160.106C122.377 160.516 122.982 160.405 123.059 159.938L123.57 156.849C123.603 156.645 123.755 156.482 123.953 156.439L126.938 155.786C127.39 155.687 127.473 155.062 127.063 154.842L124.36 153.391C124.181 153.294 124.077 153.095 124.098 152.889L124.415 149.776C124.463 149.304 123.909 149.029 123.579 149.36L121.398 151.55C121.254 151.695 121.038 151.735 120.853 151.651L118.064 150.378Z" fill="black"/>
</svg>
